<svg xmlns="http://www.w3.org/2000/svg" width="26" height="32" viewBox="0 0 26 32">
    <path fill="#FFF" d="M5.053.45v.002c-.456 0-.825.369-.825.824v15.72c0 .456.37.826.825.826h4.22L.798 22.43c-.574.312-.574 1.137 0 1.45l11.874 6.457c.246.134.543.134.789 0l11.797-6.416h-.01c.605-.234.739-1.139.087-1.493l-8.473-4.608h4.221c.456 0 .824-.37.825-.825V1.275c0-.456-.37-.825-.825-.825H5.053zm.825 1.652h14.38v14.07H16.24c-.309 0-.592.172-.733.447l-.503.978c-.048.064-.08.136-.108.21l-1.827 3.546-2.437-4.734c-.142-.275-.425-.447-.734-.447H5.878V2.102zM8.99 5.764c-.398 0-.735.295-.786.69 0 0-.187 1.314.238 2.697.213.691.591 1.428 1.262 1.996.149.126.314.24.49.344H8.978c-.286-.004-.552.146-.696.393-.144.246-.144.552 0 .798.144.247.41.397.696.393h7.061c.286.004.551-.146.695-.393.144-.246.144-.552 0-.798-.144-.247-.41-.397-.695-.393H14.82c.176-.104.342-.218.491-.344.118-.1.223-.206.323-.315.213.008.482.015.772.01.31-.003.633-.017.94-.061.307-.044.592-.005.988-.412.289-.298.336-.538.415-.808.079-.27.134-.56.17-.844.035-.284.053-.556.039-.816-.007-.13-.018-.254-.064-.41-.046-.156-.107-.443-.529-.618-.224-.093-.301-.078-.404-.084-.103-.007-.203-.008-.31-.008-.214 0-.45.007-.67.01-.061 0-.092-.004-.145-.006-.012-.195-.026-.331-.026-.331-.051-.395-.387-.69-.785-.69H8.99zm.77 1.584h5.495c-.01.38-.05.863-.197 1.338-.15.49-.394.933-.77 1.252-.377.319-.9.55-1.78.55-.882 0-1.405-.231-1.781-.55-.376-.319-.62-.762-.77-1.252-.146-.475-.188-.958-.198-1.338zm7.595 1.02c-.004.058 0 .091-.008.151-.027.213-.071.437-.119.598-.019.067.007.025-.013.061-.033.014-.047.027-.093.034-.155.022-.37.035-.588.041.011-.034.027-.068.038-.102.082-.266.136-.527.178-.78.08.002.161.004.242.003l.363-.005zm-7.232 10.87l2.212 4.294c.307.596 1.16.596 1.467 0l2.21-4.293 7.203 3.916-10.148 5.519L2.92 23.155l7.203-3.917z"/>
</svg>
