<svg xmlns="http://www.w3.org/2000/svg" width="26" height="31" viewBox="0 0 26 31">
    <path fill="#FFF" d="M4.997.447c-.45 0-.816.365-.816.815v15.546c0 .45.365.815.816.815h4.172l-8.38 4.558c-.567.309-.567 1.124 0 1.433l11.743 6.387c.243.132.537.132.78 0l11.667-6.346h-.008c.597-.231.728-1.126.083-1.476l-8.379-4.557h4.174c.45 0 .816-.365.816-.816V1.261c0-.45-.365-.816-.816-.816H4.997v.002zm.816 1.631h14.22v13.914H16.06c-.305 0-.585.17-.725.442l-.5.971c-.046.06-.076.13-.103.2l-1.808 3.51-2.41-4.68c-.14-.272-.42-.443-.725-.443H5.813V2.078zm11.12 3.51c-.212.006-.413.095-.56.247l-4.243 4.244-1.803-1.803c-.154-.158-.365-.247-.586-.247-.331 0-.63.202-.755.51-.124.307-.05.659.187.89l2.35 2.35c.158.164.378.255.606.25.229.005.45-.086.608-.25l4.789-4.79c.241-.235.314-.594.183-.903-.131-.31-.44-.508-.776-.498zm-6.922 13.436l2.187 4.247c.14.271.42.442.726.442.305 0 .585-.17.725-.442l2.186-4.246 7.122 3.873-10.035 5.457-10.035-5.457 7.124-3.874z"/>
</svg>
