<svg xmlns="http://www.w3.org/2000/svg" xmlns:xlink="http://www.w3.org/1999/xlink" width="83" height="81" viewBox="0 0 83 81">
    <defs>
        <filter id="s3tei3zxsa" width="312.2%" height="312.2%" x="-106.1%" y="-102%" filterUnits="objectBoundingBox">
            <feOffset dy="2" in="SourceAlpha" result="shadowOffsetOuter1"/>
            <feGaussianBlur in="shadowOffsetOuter1" result="shadowBlurOuter1" stdDeviation="17"/>
            <feColorMatrix in="shadowBlurOuter1" values="0 0 0 0 0 0 0 0 0 0 0 0 0 0 0 0 0 0 0.205247962 0"/>
        </filter>
        <circle id="jgcansu1gb" cx="41.5" cy="38.5" r="24.5"/>
    </defs>
    <g fill="none" fill-rule="evenodd">
        <use fill="#000" filter="url(#s3tei3zxsa)" xlink:href="#jgcansu1gb"/>
        <use fill="#F8A12A" xlink:href="#jgcansu1gb"/>
        <g fill="#FFF">
            <path d="M.497.059C.403-.01.277-.02.171.033.066.084 0 .189 0 .304v13.392c0 .114.066.22.171.271.045.022.093.033.141.033.066 0 .13-.02.185-.059l9.376-6.695c.08-.058.127-.15.127-.246 0-.097-.047-.188-.127-.246L.498.06z" transform="translate(38 32)"/>
        </g>
    </g>
</svg>
