<svg xmlns="http://www.w3.org/2000/svg" xmlns:xlink="http://www.w3.org/1999/xlink" width="1925" height="481" viewBox="0 0 1925 481">
    <defs>
        <path id="prefix__a" d="M0 0H1925V481H0z"/>
    </defs>
    <g fill="none" fill-rule="evenodd">
        <mask id="prefix__b" fill="#fff">
            <use xlink:href="#prefix__a"/>
        </mask>
        <use fill="#38405E" xlink:href="#prefix__a"/>
        <g mask="url(#prefix__b)" opacity=".132">
            <g>
                <path fill="#1B8BC8" d="M4.774 2.393c0 1.322-1.068 2.394-2.388 2.394C1.07 4.787 0 3.715 0 2.393S1.069 0 2.386 0c1.32 0 2.388 1.071 2.388 2.393M19.097 2.393c0 1.322-1.069 2.394-2.388 2.394-1.318 0-2.386-1.072-2.386-2.394S15.39 0 16.709 0c1.32 0 2.388 1.071 2.388 2.393M32.226 2.393c0 1.322-1.069 2.394-2.387 2.394-1.32 0-2.387-1.072-2.387-2.394S28.52 0 29.839 0c1.318 0 2.387 1.071 2.387 2.393M46.548 2.393c0 1.322-1.068 2.394-2.388 2.394-1.318 0-2.386-1.072-2.386-2.394S42.842 0 44.16 0c1.32 0 2.388 1.071 2.388 2.393M59.677 2.393c0 1.322-1.068 2.394-2.387 2.394-1.318 0-2.387-1.072-2.387-2.394S55.972 0 57.29 0c1.32 0 2.387 1.071 2.387 2.393M4.774 15.557c0 1.322-1.068 2.394-2.388 2.394C1.07 17.95 0 16.879 0 15.557c0-1.321 1.069-2.393 2.386-2.393 1.32 0 2.388 1.072 2.388 2.393M19.097 15.557c0 1.322-1.069 2.394-2.388 2.394-1.318 0-2.386-1.072-2.386-2.394 0-1.321 1.068-2.393 2.386-2.393 1.32 0 2.388 1.072 2.388 2.393M32.226 15.557c0 1.322-1.069 2.394-2.387 2.394-1.32 0-2.387-1.072-2.387-2.394 0-1.321 1.068-2.393 2.387-2.393 1.318 0 2.387 1.072 2.387 2.393M46.548 15.557c0 1.322-1.068 2.394-2.388 2.394-1.318 0-2.386-1.072-2.386-2.394 0-1.321 1.068-2.393 2.386-2.393 1.32 0 2.388 1.072 2.388 2.393M59.677 15.557c0 1.322-1.068 2.394-2.387 2.394-1.318 0-2.387-1.072-2.387-2.394 0-1.321 1.069-2.393 2.387-2.393 1.32 0 2.387 1.072 2.387 2.393M4.774 30.517c0 1.651-1.068 2.991-2.388 2.991C1.07 33.508 0 32.168 0 30.517c0-1.653 1.069-2.992 2.386-2.992 1.32 0 2.388 1.34 2.388 2.992M19.097 30.517c0 1.651-1.069 2.991-2.388 2.991-1.318 0-2.386-1.34-2.386-2.991 0-1.653 1.068-2.992 2.386-2.992 1.32 0 2.388 1.34 2.388 2.992M32.226 30.517c0 1.651-1.069 2.991-2.387 2.991-1.32 0-2.387-1.34-2.387-2.991 0-1.653 1.068-2.992 2.387-2.992 1.318 0 2.387 1.34 2.387 2.992M46.548 30.517c0 1.651-1.068 2.991-2.388 2.991-1.318 0-2.386-1.34-2.386-2.991 0-1.653 1.068-2.992 2.386-2.992 1.32 0 2.388 1.34 2.388 2.992M59.677 30.517c0 1.651-1.068 2.991-2.387 2.991-1.318 0-2.387-1.34-2.387-2.991 0-1.653 1.069-2.992 2.387-2.992 1.32 0 2.387 1.34 2.387 2.992M4.774 43.68c0 1.652-1.068 2.992-2.388 2.992C1.07 46.672 0 45.332 0 43.68s1.069-2.991 2.386-2.991c1.32 0 2.388 1.34 2.388 2.991M19.097 43.68c0 1.652-1.069 2.992-2.388 2.992-1.318 0-2.386-1.34-2.386-2.992s1.068-2.991 2.386-2.991c1.32 0 2.388 1.34 2.388 2.991M32.226 43.68c0 1.652-1.069 2.992-2.387 2.992-1.32 0-2.387-1.34-2.387-2.992s1.068-2.991 2.387-2.991c1.318 0 2.387 1.34 2.387 2.991M46.548 43.68c0 1.652-1.068 2.992-2.388 2.992-1.318 0-2.386-1.34-2.386-2.992s1.068-2.991 2.386-2.991c1.32 0 2.388 1.34 2.388 2.991M59.677 43.68c0 1.652-1.068 2.992-2.387 2.992-1.318 0-2.387-1.34-2.387-2.992s1.069-2.991 2.387-2.991c1.32 0 2.387 1.34 2.387 2.991M4.774 57.443c0 1.321-1.068 2.393-2.388 2.393C1.07 59.836 0 58.764 0 57.443c0-1.322 1.069-2.394 2.386-2.394 1.32 0 2.388 1.072 2.388 2.394M19.097 57.443c0 1.321-1.069 2.393-2.388 2.393-1.318 0-2.386-1.072-2.386-2.393 0-1.322 1.068-2.394 2.386-2.394 1.32 0 2.388 1.072 2.388 2.394M32.226 57.443c0 1.321-1.069 2.393-2.387 2.393-1.32 0-2.387-1.072-2.387-2.393 0-1.322 1.068-2.394 2.387-2.394 1.318 0 2.387 1.072 2.387 2.394M46.548 57.443c0 1.321-1.068 2.393-2.388 2.393-1.318 0-2.386-1.072-2.386-2.393 0-1.322 1.068-2.394 2.386-2.394 1.32 0 2.388 1.072 2.388 2.394M59.677 57.443c0 1.321-1.068 2.393-2.387 2.393-1.318 0-2.387-1.072-2.387-2.393 0-1.322 1.069-2.394 2.387-2.394 1.32 0 2.387 1.072 2.387 2.394M4.774 70.607C4.774 71.929 3.706 73 2.386 73 1.07 73 0 71.929 0 70.607c0-1.322 1.069-2.394 2.386-2.394 1.32 0 2.388 1.072 2.388 2.394M19.097 70.607c0 1.322-1.069 2.393-2.388 2.393-1.318 0-2.386-1.071-2.386-2.393 0-1.322 1.068-2.394 2.386-2.394 1.32 0 2.388 1.072 2.388 2.394M32.226 70.607c0 1.322-1.069 2.393-2.387 2.393-1.32 0-2.387-1.071-2.387-2.393 0-1.322 1.068-2.394 2.387-2.394 1.318 0 2.387 1.072 2.387 2.394M46.548 70.607c0 1.322-1.068 2.393-2.388 2.393-1.318 0-2.386-1.071-2.386-2.393 0-1.322 1.068-2.394 2.386-2.394 1.32 0 2.388 1.072 2.388 2.394M59.677 70.607c0 1.322-1.068 2.393-2.387 2.393-1.318 0-2.387-1.071-2.387-2.393 0-1.322 1.069-2.394 2.387-2.394 1.32 0 2.387 1.072 2.387 2.394M74 2.393c0 1.322-1.068 2.394-2.388 2.394-1.318 0-2.386-1.072-2.386-2.394S70.294 0 71.612 0C72.932 0 74 1.071 74 2.393M74 15.557c0 1.322-1.068 2.394-2.388 2.394-1.318 0-2.386-1.072-2.386-2.394 0-1.321 1.068-2.393 2.386-2.393 1.32 0 2.388 1.072 2.388 2.393M74 30.517c0 1.651-1.068 2.991-2.388 2.991-1.318 0-2.386-1.34-2.386-2.991 0-1.653 1.068-2.992 2.386-2.992 1.32 0 2.388 1.34 2.388 2.992M74 43.68c0 1.652-1.068 2.992-2.388 2.992-1.318 0-2.386-1.34-2.386-2.992s1.068-2.991 2.386-2.991c1.32 0 2.388 1.34 2.388 2.991M74 57.443c0 1.321-1.068 2.393-2.388 2.393-1.318 0-2.386-1.072-2.386-2.393 0-1.322 1.068-2.394 2.386-2.394 1.32 0 2.388 1.072 2.388 2.394M74 70.607C74 71.929 72.932 73 71.612 73c-1.318 0-2.386-1.071-2.386-2.393 0-1.322 1.068-2.394 2.386-2.394 1.32 0 2.388 1.072 2.388 2.394" transform="translate(416 299)"/>
                <g>
                    <path fill="#1B8BC8" d="M4.774 2.393c0 1.322-1.068 2.394-2.388 2.394C1.07 4.787 0 3.715 0 2.393S1.069 0 2.386 0c1.32 0 2.388 1.071 2.388 2.393M19.097 2.393c0 1.322-1.069 2.394-2.388 2.394-1.318 0-2.386-1.072-2.386-2.394S15.39 0 16.709 0c1.32 0 2.388 1.071 2.388 2.393M32.226 2.393c0 1.322-1.069 2.394-2.387 2.394-1.32 0-2.387-1.072-2.387-2.394S28.52 0 29.839 0c1.318 0 2.387 1.071 2.387 2.393M46.548 2.393c0 1.322-1.068 2.394-2.388 2.394-1.318 0-2.386-1.072-2.386-2.394S42.842 0 44.16 0c1.32 0 2.388 1.071 2.388 2.393M59.677 2.393c0 1.322-1.068 2.394-2.387 2.394-1.318 0-2.387-1.072-2.387-2.394S55.972 0 57.29 0c1.32 0 2.387 1.071 2.387 2.393M4.774 15.557c0 1.322-1.068 2.394-2.388 2.394C1.07 17.95 0 16.879 0 15.557c0-1.321 1.069-2.393 2.386-2.393 1.32 0 2.388 1.072 2.388 2.393M19.097 15.557c0 1.322-1.069 2.394-2.388 2.394-1.318 0-2.386-1.072-2.386-2.394 0-1.321 1.068-2.393 2.386-2.393 1.32 0 2.388 1.072 2.388 2.393M32.226 15.557c0 1.322-1.069 2.394-2.387 2.394-1.32 0-2.387-1.072-2.387-2.394 0-1.321 1.068-2.393 2.387-2.393 1.318 0 2.387 1.072 2.387 2.393M46.548 15.557c0 1.322-1.068 2.394-2.388 2.394-1.318 0-2.386-1.072-2.386-2.394 0-1.321 1.068-2.393 2.386-2.393 1.32 0 2.388 1.072 2.388 2.393M59.677 15.557c0 1.322-1.068 2.394-2.387 2.394-1.318 0-2.387-1.072-2.387-2.394 0-1.321 1.069-2.393 2.387-2.393 1.32 0 2.387 1.072 2.387 2.393M4.774 30.517c0 1.651-1.068 2.991-2.388 2.991C1.07 33.508 0 32.168 0 30.517c0-1.653 1.069-2.992 2.386-2.992 1.32 0 2.388 1.34 2.388 2.992M19.097 30.517c0 1.651-1.069 2.991-2.388 2.991-1.318 0-2.386-1.34-2.386-2.991 0-1.653 1.068-2.992 2.386-2.992 1.32 0 2.388 1.34 2.388 2.992M32.226 30.517c0 1.651-1.069 2.991-2.387 2.991-1.32 0-2.387-1.34-2.387-2.991 0-1.653 1.068-2.992 2.387-2.992 1.318 0 2.387 1.34 2.387 2.992M46.548 30.517c0 1.651-1.068 2.991-2.388 2.991-1.318 0-2.386-1.34-2.386-2.991 0-1.653 1.068-2.992 2.386-2.992 1.32 0 2.388 1.34 2.388 2.992M59.677 30.517c0 1.651-1.068 2.991-2.387 2.991-1.318 0-2.387-1.34-2.387-2.991 0-1.653 1.069-2.992 2.387-2.992 1.32 0 2.387 1.34 2.387 2.992M4.774 43.68c0 1.652-1.068 2.992-2.388 2.992C1.07 46.672 0 45.332 0 43.68s1.069-2.991 2.386-2.991c1.32 0 2.388 1.34 2.388 2.991M19.097 43.68c0 1.652-1.069 2.992-2.388 2.992-1.318 0-2.386-1.34-2.386-2.992s1.068-2.991 2.386-2.991c1.32 0 2.388 1.34 2.388 2.991M32.226 43.68c0 1.652-1.069 2.992-2.387 2.992-1.32 0-2.387-1.34-2.387-2.992s1.068-2.991 2.387-2.991c1.318 0 2.387 1.34 2.387 2.991M46.548 43.68c0 1.652-1.068 2.992-2.388 2.992-1.318 0-2.386-1.34-2.386-2.992s1.068-2.991 2.386-2.991c1.32 0 2.388 1.34 2.388 2.991M59.677 43.68c0 1.652-1.068 2.992-2.387 2.992-1.318 0-2.387-1.34-2.387-2.992s1.069-2.991 2.387-2.991c1.32 0 2.387 1.34 2.387 2.991M4.774 57.443c0 1.321-1.068 2.393-2.388 2.393C1.07 59.836 0 58.764 0 57.443c0-1.322 1.069-2.394 2.386-2.394 1.32 0 2.388 1.072 2.388 2.394M19.097 57.443c0 1.321-1.069 2.393-2.388 2.393-1.318 0-2.386-1.072-2.386-2.393 0-1.322 1.068-2.394 2.386-2.394 1.32 0 2.388 1.072 2.388 2.394M32.226 57.443c0 1.321-1.069 2.393-2.387 2.393-1.32 0-2.387-1.072-2.387-2.393 0-1.322 1.068-2.394 2.387-2.394 1.318 0 2.387 1.072 2.387 2.394M46.548 57.443c0 1.321-1.068 2.393-2.388 2.393-1.318 0-2.386-1.072-2.386-2.393 0-1.322 1.068-2.394 2.386-2.394 1.32 0 2.388 1.072 2.388 2.394M59.677 57.443c0 1.321-1.068 2.393-2.387 2.393-1.318 0-2.387-1.072-2.387-2.393 0-1.322 1.069-2.394 2.387-2.394 1.32 0 2.387 1.072 2.387 2.394M4.774 70.607C4.774 71.929 3.706 73 2.386 73 1.07 73 0 71.929 0 70.607c0-1.322 1.069-2.394 2.386-2.394 1.32 0 2.388 1.072 2.388 2.394M19.097 70.607c0 1.322-1.069 2.393-2.388 2.393-1.318 0-2.386-1.071-2.386-2.393 0-1.322 1.068-2.394 2.386-2.394 1.32 0 2.388 1.072 2.388 2.394M32.226 70.607c0 1.322-1.069 2.393-2.387 2.393-1.32 0-2.387-1.071-2.387-2.393 0-1.322 1.068-2.394 2.387-2.394 1.318 0 2.387 1.072 2.387 2.394M46.548 70.607c0 1.322-1.068 2.393-2.388 2.393-1.318 0-2.386-1.071-2.386-2.393 0-1.322 1.068-2.394 2.386-2.394 1.32 0 2.388 1.072 2.388 2.394M59.677 70.607c0 1.322-1.068 2.393-2.387 2.393-1.318 0-2.387-1.071-2.387-2.393 0-1.322 1.069-2.394 2.387-2.394 1.32 0 2.387 1.072 2.387 2.394M74 2.393c0 1.322-1.068 2.394-2.388 2.394-1.318 0-2.386-1.072-2.386-2.394S70.294 0 71.612 0C72.932 0 74 1.071 74 2.393M74 15.557c0 1.322-1.068 2.394-2.388 2.394-1.318 0-2.386-1.072-2.386-2.394 0-1.321 1.068-2.393 2.386-2.393 1.32 0 2.388 1.072 2.388 2.393M74 30.517c0 1.651-1.068 2.991-2.388 2.991-1.318 0-2.386-1.34-2.386-2.991 0-1.653 1.068-2.992 2.386-2.992 1.32 0 2.388 1.34 2.388 2.992M74 43.68c0 1.652-1.068 2.992-2.388 2.992-1.318 0-2.386-1.34-2.386-2.992s1.068-2.991 2.386-2.991c1.32 0 2.388 1.34 2.388 2.991M74 57.443c0 1.321-1.068 2.393-2.388 2.393-1.318 0-2.386-1.072-2.386-2.393 0-1.322 1.068-2.394 2.386-2.394 1.32 0 2.388 1.072 2.388 2.394M74 70.607C74 71.929 72.932 73 71.612 73c-1.318 0-2.386-1.071-2.386-2.393 0-1.322 1.068-2.394 2.386-2.394 1.32 0 2.388 1.072 2.388 2.394" transform="translate(416 299) translate(0 80)"/>
                </g>
                <g>
                    <path fill="#1B8BC8" d="M4.774 2.393c0 1.322-1.068 2.394-2.388 2.394C1.07 4.787 0 3.715 0 2.393S1.069 0 2.386 0c1.32 0 2.388 1.071 2.388 2.393M19.097 2.393c0 1.322-1.069 2.394-2.388 2.394-1.318 0-2.386-1.072-2.386-2.394S15.39 0 16.709 0c1.32 0 2.388 1.071 2.388 2.393M32.226 2.393c0 1.322-1.069 2.394-2.387 2.394-1.32 0-2.387-1.072-2.387-2.394S28.52 0 29.839 0c1.318 0 2.387 1.071 2.387 2.393M46.548 2.393c0 1.322-1.068 2.394-2.388 2.394-1.318 0-2.386-1.072-2.386-2.394S42.842 0 44.16 0c1.32 0 2.388 1.071 2.388 2.393M59.677 2.393c0 1.322-1.068 2.394-2.387 2.394-1.318 0-2.387-1.072-2.387-2.394S55.972 0 57.29 0c1.32 0 2.387 1.071 2.387 2.393M4.774 15.557c0 1.322-1.068 2.394-2.388 2.394C1.07 17.95 0 16.879 0 15.557c0-1.321 1.069-2.393 2.386-2.393 1.32 0 2.388 1.072 2.388 2.393M19.097 15.557c0 1.322-1.069 2.394-2.388 2.394-1.318 0-2.386-1.072-2.386-2.394 0-1.321 1.068-2.393 2.386-2.393 1.32 0 2.388 1.072 2.388 2.393M32.226 15.557c0 1.322-1.069 2.394-2.387 2.394-1.32 0-2.387-1.072-2.387-2.394 0-1.321 1.068-2.393 2.387-2.393 1.318 0 2.387 1.072 2.387 2.393M46.548 15.557c0 1.322-1.068 2.394-2.388 2.394-1.318 0-2.386-1.072-2.386-2.394 0-1.321 1.068-2.393 2.386-2.393 1.32 0 2.388 1.072 2.388 2.393M59.677 15.557c0 1.322-1.068 2.394-2.387 2.394-1.318 0-2.387-1.072-2.387-2.394 0-1.321 1.069-2.393 2.387-2.393 1.32 0 2.387 1.072 2.387 2.393M4.774 30.517c0 1.651-1.068 2.991-2.388 2.991C1.07 33.508 0 32.168 0 30.517c0-1.653 1.069-2.992 2.386-2.992 1.32 0 2.388 1.34 2.388 2.992M19.097 30.517c0 1.651-1.069 2.991-2.388 2.991-1.318 0-2.386-1.34-2.386-2.991 0-1.653 1.068-2.992 2.386-2.992 1.32 0 2.388 1.34 2.388 2.992M32.226 30.517c0 1.651-1.069 2.991-2.387 2.991-1.32 0-2.387-1.34-2.387-2.991 0-1.653 1.068-2.992 2.387-2.992 1.318 0 2.387 1.34 2.387 2.992M46.548 30.517c0 1.651-1.068 2.991-2.388 2.991-1.318 0-2.386-1.34-2.386-2.991 0-1.653 1.068-2.992 2.386-2.992 1.32 0 2.388 1.34 2.388 2.992M59.677 30.517c0 1.651-1.068 2.991-2.387 2.991-1.318 0-2.387-1.34-2.387-2.991 0-1.653 1.069-2.992 2.387-2.992 1.32 0 2.387 1.34 2.387 2.992M4.774 43.68c0 1.652-1.068 2.992-2.388 2.992C1.07 46.672 0 45.332 0 43.68s1.069-2.991 2.386-2.991c1.32 0 2.388 1.34 2.388 2.991M19.097 43.68c0 1.652-1.069 2.992-2.388 2.992-1.318 0-2.386-1.34-2.386-2.992s1.068-2.991 2.386-2.991c1.32 0 2.388 1.34 2.388 2.991M32.226 43.68c0 1.652-1.069 2.992-2.387 2.992-1.32 0-2.387-1.34-2.387-2.992s1.068-2.991 2.387-2.991c1.318 0 2.387 1.34 2.387 2.991M46.548 43.68c0 1.652-1.068 2.992-2.388 2.992-1.318 0-2.386-1.34-2.386-2.992s1.068-2.991 2.386-2.991c1.32 0 2.388 1.34 2.388 2.991M59.677 43.68c0 1.652-1.068 2.992-2.387 2.992-1.318 0-2.387-1.34-2.387-2.992s1.069-2.991 2.387-2.991c1.32 0 2.387 1.34 2.387 2.991M4.774 57.443c0 1.321-1.068 2.393-2.388 2.393C1.07 59.836 0 58.764 0 57.443c0-1.322 1.069-2.394 2.386-2.394 1.32 0 2.388 1.072 2.388 2.394M19.097 57.443c0 1.321-1.069 2.393-2.388 2.393-1.318 0-2.386-1.072-2.386-2.393 0-1.322 1.068-2.394 2.386-2.394 1.32 0 2.388 1.072 2.388 2.394M32.226 57.443c0 1.321-1.069 2.393-2.387 2.393-1.32 0-2.387-1.072-2.387-2.393 0-1.322 1.068-2.394 2.387-2.394 1.318 0 2.387 1.072 2.387 2.394M46.548 57.443c0 1.321-1.068 2.393-2.388 2.393-1.318 0-2.386-1.072-2.386-2.393 0-1.322 1.068-2.394 2.386-2.394 1.32 0 2.388 1.072 2.388 2.394M59.677 57.443c0 1.321-1.068 2.393-2.387 2.393-1.318 0-2.387-1.072-2.387-2.393 0-1.322 1.069-2.394 2.387-2.394 1.32 0 2.387 1.072 2.387 2.394M4.774 70.607C4.774 71.929 3.706 73 2.386 73 1.07 73 0 71.929 0 70.607c0-1.322 1.069-2.394 2.386-2.394 1.32 0 2.388 1.072 2.388 2.394M19.097 70.607c0 1.322-1.069 2.393-2.388 2.393-1.318 0-2.386-1.071-2.386-2.393 0-1.322 1.068-2.394 2.386-2.394 1.32 0 2.388 1.072 2.388 2.394M32.226 70.607c0 1.322-1.069 2.393-2.387 2.393-1.32 0-2.387-1.071-2.387-2.393 0-1.322 1.068-2.394 2.387-2.394 1.318 0 2.387 1.072 2.387 2.394M46.548 70.607c0 1.322-1.068 2.393-2.388 2.393-1.318 0-2.386-1.071-2.386-2.393 0-1.322 1.068-2.394 2.386-2.394 1.32 0 2.388 1.072 2.388 2.394M59.677 70.607c0 1.322-1.068 2.393-2.387 2.393-1.318 0-2.387-1.071-2.387-2.393 0-1.322 1.069-2.394 2.387-2.394 1.32 0 2.387 1.072 2.387 2.394M74 2.393c0 1.322-1.068 2.394-2.388 2.394-1.318 0-2.386-1.072-2.386-2.394S70.294 0 71.612 0C72.932 0 74 1.071 74 2.393M74 15.557c0 1.322-1.068 2.394-2.388 2.394-1.318 0-2.386-1.072-2.386-2.394 0-1.321 1.068-2.393 2.386-2.393 1.32 0 2.388 1.072 2.388 2.393M74 30.517c0 1.651-1.068 2.991-2.388 2.991-1.318 0-2.386-1.34-2.386-2.991 0-1.653 1.068-2.992 2.386-2.992 1.32 0 2.388 1.34 2.388 2.992M74 43.68c0 1.652-1.068 2.992-2.388 2.992-1.318 0-2.386-1.34-2.386-2.992s1.068-2.991 2.386-2.991c1.32 0 2.388 1.34 2.388 2.991M74 57.443c0 1.321-1.068 2.393-2.388 2.393-1.318 0-2.386-1.072-2.386-2.393 0-1.322 1.068-2.394 2.386-2.394 1.32 0 2.388 1.072 2.388 2.394M74 70.607C74 71.929 72.932 73 71.612 73c-1.318 0-2.386-1.071-2.386-2.393 0-1.322 1.068-2.394 2.386-2.394 1.32 0 2.388 1.072 2.388 2.394" transform="translate(416 299) translate(84)"/>
                </g>
                <g>
                    <path fill="#1B8BC8" d="M4.774 2.393c0 1.322-1.068 2.394-2.388 2.394C1.07 4.787 0 3.715 0 2.393S1.069 0 2.386 0c1.32 0 2.388 1.071 2.388 2.393M19.097 2.393c0 1.322-1.069 2.394-2.388 2.394-1.318 0-2.386-1.072-2.386-2.394S15.39 0 16.709 0c1.32 0 2.388 1.071 2.388 2.393M32.226 2.393c0 1.322-1.069 2.394-2.387 2.394-1.32 0-2.387-1.072-2.387-2.394S28.52 0 29.839 0c1.318 0 2.387 1.071 2.387 2.393M46.548 2.393c0 1.322-1.068 2.394-2.388 2.394-1.318 0-2.386-1.072-2.386-2.394S42.842 0 44.16 0c1.32 0 2.388 1.071 2.388 2.393M59.677 2.393c0 1.322-1.068 2.394-2.387 2.394-1.318 0-2.387-1.072-2.387-2.394S55.972 0 57.29 0c1.32 0 2.387 1.071 2.387 2.393M4.774 15.557c0 1.322-1.068 2.394-2.388 2.394C1.07 17.95 0 16.879 0 15.557c0-1.321 1.069-2.393 2.386-2.393 1.32 0 2.388 1.072 2.388 2.393M19.097 15.557c0 1.322-1.069 2.394-2.388 2.394-1.318 0-2.386-1.072-2.386-2.394 0-1.321 1.068-2.393 2.386-2.393 1.32 0 2.388 1.072 2.388 2.393M32.226 15.557c0 1.322-1.069 2.394-2.387 2.394-1.32 0-2.387-1.072-2.387-2.394 0-1.321 1.068-2.393 2.387-2.393 1.318 0 2.387 1.072 2.387 2.393M46.548 15.557c0 1.322-1.068 2.394-2.388 2.394-1.318 0-2.386-1.072-2.386-2.394 0-1.321 1.068-2.393 2.386-2.393 1.32 0 2.388 1.072 2.388 2.393M59.677 15.557c0 1.322-1.068 2.394-2.387 2.394-1.318 0-2.387-1.072-2.387-2.394 0-1.321 1.069-2.393 2.387-2.393 1.32 0 2.387 1.072 2.387 2.393M4.774 30.517c0 1.651-1.068 2.991-2.388 2.991C1.07 33.508 0 32.168 0 30.517c0-1.653 1.069-2.992 2.386-2.992 1.32 0 2.388 1.34 2.388 2.992M19.097 30.517c0 1.651-1.069 2.991-2.388 2.991-1.318 0-2.386-1.34-2.386-2.991 0-1.653 1.068-2.992 2.386-2.992 1.32 0 2.388 1.34 2.388 2.992M32.226 30.517c0 1.651-1.069 2.991-2.387 2.991-1.32 0-2.387-1.34-2.387-2.991 0-1.653 1.068-2.992 2.387-2.992 1.318 0 2.387 1.34 2.387 2.992M46.548 30.517c0 1.651-1.068 2.991-2.388 2.991-1.318 0-2.386-1.34-2.386-2.991 0-1.653 1.068-2.992 2.386-2.992 1.32 0 2.388 1.34 2.388 2.992M59.677 30.517c0 1.651-1.068 2.991-2.387 2.991-1.318 0-2.387-1.34-2.387-2.991 0-1.653 1.069-2.992 2.387-2.992 1.32 0 2.387 1.34 2.387 2.992M4.774 43.68c0 1.652-1.068 2.992-2.388 2.992C1.07 46.672 0 45.332 0 43.68s1.069-2.991 2.386-2.991c1.32 0 2.388 1.34 2.388 2.991M19.097 43.68c0 1.652-1.069 2.992-2.388 2.992-1.318 0-2.386-1.34-2.386-2.992s1.068-2.991 2.386-2.991c1.32 0 2.388 1.34 2.388 2.991M32.226 43.68c0 1.652-1.069 2.992-2.387 2.992-1.32 0-2.387-1.34-2.387-2.992s1.068-2.991 2.387-2.991c1.318 0 2.387 1.34 2.387 2.991M46.548 43.68c0 1.652-1.068 2.992-2.388 2.992-1.318 0-2.386-1.34-2.386-2.992s1.068-2.991 2.386-2.991c1.32 0 2.388 1.34 2.388 2.991M59.677 43.68c0 1.652-1.068 2.992-2.387 2.992-1.318 0-2.387-1.34-2.387-2.992s1.069-2.991 2.387-2.991c1.32 0 2.387 1.34 2.387 2.991M4.774 57.443c0 1.321-1.068 2.393-2.388 2.393C1.07 59.836 0 58.764 0 57.443c0-1.322 1.069-2.394 2.386-2.394 1.32 0 2.388 1.072 2.388 2.394M19.097 57.443c0 1.321-1.069 2.393-2.388 2.393-1.318 0-2.386-1.072-2.386-2.393 0-1.322 1.068-2.394 2.386-2.394 1.32 0 2.388 1.072 2.388 2.394M32.226 57.443c0 1.321-1.069 2.393-2.387 2.393-1.32 0-2.387-1.072-2.387-2.393 0-1.322 1.068-2.394 2.387-2.394 1.318 0 2.387 1.072 2.387 2.394M46.548 57.443c0 1.321-1.068 2.393-2.388 2.393-1.318 0-2.386-1.072-2.386-2.393 0-1.322 1.068-2.394 2.386-2.394 1.32 0 2.388 1.072 2.388 2.394M59.677 57.443c0 1.321-1.068 2.393-2.387 2.393-1.318 0-2.387-1.072-2.387-2.393 0-1.322 1.069-2.394 2.387-2.394 1.32 0 2.387 1.072 2.387 2.394M4.774 70.607C4.774 71.929 3.706 73 2.386 73 1.07 73 0 71.929 0 70.607c0-1.322 1.069-2.394 2.386-2.394 1.32 0 2.388 1.072 2.388 2.394M19.097 70.607c0 1.322-1.069 2.393-2.388 2.393-1.318 0-2.386-1.071-2.386-2.393 0-1.322 1.068-2.394 2.386-2.394 1.32 0 2.388 1.072 2.388 2.394M32.226 70.607c0 1.322-1.069 2.393-2.387 2.393-1.32 0-2.387-1.071-2.387-2.393 0-1.322 1.068-2.394 2.387-2.394 1.318 0 2.387 1.072 2.387 2.394M46.548 70.607c0 1.322-1.068 2.393-2.388 2.393-1.318 0-2.386-1.071-2.386-2.393 0-1.322 1.068-2.394 2.386-2.394 1.32 0 2.388 1.072 2.388 2.394M59.677 70.607c0 1.322-1.068 2.393-2.387 2.393-1.318 0-2.387-1.071-2.387-2.393 0-1.322 1.069-2.394 2.387-2.394 1.32 0 2.387 1.072 2.387 2.394M74 2.393c0 1.322-1.068 2.394-2.388 2.394-1.318 0-2.386-1.072-2.386-2.394S70.294 0 71.612 0C72.932 0 74 1.071 74 2.393M74 15.557c0 1.322-1.068 2.394-2.388 2.394-1.318 0-2.386-1.072-2.386-2.394 0-1.321 1.068-2.393 2.386-2.393 1.32 0 2.388 1.072 2.388 2.393M74 30.517c0 1.651-1.068 2.991-2.388 2.991-1.318 0-2.386-1.34-2.386-2.991 0-1.653 1.068-2.992 2.386-2.992 1.32 0 2.388 1.34 2.388 2.992M74 43.68c0 1.652-1.068 2.992-2.388 2.992-1.318 0-2.386-1.34-2.386-2.992s1.068-2.991 2.386-2.991c1.32 0 2.388 1.34 2.388 2.991M74 57.443c0 1.321-1.068 2.393-2.388 2.393-1.318 0-2.386-1.072-2.386-2.393 0-1.322 1.068-2.394 2.386-2.394 1.32 0 2.388 1.072 2.388 2.394M74 70.607C74 71.929 72.932 73 71.612 73c-1.318 0-2.386-1.071-2.386-2.393 0-1.322 1.068-2.394 2.386-2.394 1.32 0 2.388 1.072 2.388 2.394" transform="translate(416 299) translate(84 80)"/>
                </g>
            </g>
        </g>
        <path stroke="#FFF" stroke-linecap="round" stroke-width="6" d="M1260 460.816c2.977-3.101 56.887-82.238 180.066-79.96 82.12 1.518 138.075-31.1 167.864-97.856" mask="url(#prefix__b)" opacity=".038"/>
        <path stroke="#FFF" stroke-linecap="round" stroke-width="5" d="M249.219 122.074c53.52-14.794 86.316-4.849 98.386 29.836 18.106 52.028 65.633 24.188 94.137 31.457 28.504 7.27 32.25 39.867 35.102 57.465" mask="url(#prefix__b)" opacity=".101"/>
        <circle cx="1219.5" cy="239.5" r="13.5" stroke="#FFF" stroke-width="5" mask="url(#prefix__b)" opacity=".041"/>
        <path stroke="#FFF" stroke-width="5" d="M607.096 63.096H634.096V90.096H607.096z" mask="url(#prefix__b)" opacity=".123" transform="rotate(15 620.596 76.596)"/>
    </g>
</svg>
