<svg xmlns="http://www.w3.org/2000/svg" xmlns:xlink="http://www.w3.org/1999/xlink" width="306" height="48" viewBox="0 0 306 48">
    <defs>
        <filter id="prefix__a" width="101.3%" height="108.7%" x="-.7%" y="-2.2%" filterUnits="objectBoundingBox">
            <feOffset dy="1" in="SourceAlpha" result="shadowOffsetOuter1"/>
            <feGaussianBlur in="shadowOffsetOuter1" result="shadowBlurOuter1" stdDeviation=".5"/>
            <feColorMatrix in="shadowBlurOuter1" values="0 0 0 0 0 0 0 0 0 0 0 0 0 0 0 0 0 0 0.14 0"/>
        </filter>
        <rect id="prefix__b" width="304" height="46" x="0" y="62" rx="23"/>
    </defs>
    <g fill="none" fill-rule="evenodd" transform="translate(1 -62)">
        <use fill="#000" filter="url(#prefix__a)" xlink:href="#prefix__b"/>
        <use fill="#D94F44" xlink:href="#prefix__b"/>
        <text fill="#FFF" font-family="PloniDL1.1AAA-Bold, Ploni DL 1.1 AAA" font-size="11.2" font-weight="bold" letter-spacing="1">
            <tspan x="93.37" y="86">LOGIN WITH GOOGLE</tspan>
        </text>
        <g fill="#FFF" fill-rule="nonzero">
            <path d="M11.262 6.35c0 1.167-.231 2.208-.693 3.125-.461.917-1.111 1.633-1.95 2.15-.838.517-1.804.775-2.896.775-1.03 0-1.985-.28-2.861-.838C1.985 11.004 1.288 10.25.773 9.3.258 8.35 0 7.317 0 6.2s.258-2.15.773-3.1c.515-.95 1.212-1.704 2.089-2.263C3.738.28 4.692 0 5.723 0c1.492 0 2.77.542 3.83 1.625L8.009 3.25c-.493-.517-1.085-.825-1.777-.925-.646-.1-1.285 0-1.916.3-.63.3-1.138.75-1.523 1.35-.415.65-.623 1.392-.623 2.225 0 .717.162 1.37.485 1.962.323.592.754 1.067 1.292 1.425.539.359 1.13.538 1.777.538.692 0 1.3-.167 1.823-.5.416-.267.762-.625 1.039-1.075.2-.367.33-.733.392-1.1H5.723V5.3h5.446c.062.367.093.717.093 1.05z" transform="translate(51 79)"/>
        </g>
    </g>
</svg>
