<svg xmlns="http://www.w3.org/2000/svg" width="26" height="26" viewBox="0 0 26 26">
    <path fill="#FFF" stroke="#6E6D71" stroke-width=".5" d="M23.965 12.806l-2.31-2.31v-.001l-8.47-8.47c-.144-.144-.34-.225-.544-.225-.205 0-.4.081-.545.226l-8.47 8.469v.001l-2.31 2.31c-.292.302-.287.782.01 1.079.297.297.777.301 1.079.01l.996-.996V24.13c0 .425.344.77.77.77h5.39c.425 0 .77-.345.77-.77v-6.16h4.62v6.16c0 .425.344.77.77.77h5.39c.425 0 .77-.345.77-.77V12.899l.995.995c.302.292.783.288 1.08-.009.297-.297.3-.777.009-1.08zM20.34 23.36h-3.85V17.2c0-.425-.345-.77-.77-.77H9.56c-.426 0-.77.345-.77.77v6.16H4.94V11.359l7.7-7.7 7.7 7.7V23.36z"/>
</svg>
