<svg xmlns="http://www.w3.org/2000/svg" width="48" height="48" viewBox="0 0 48 48">
    <defs>
        <linearGradient id="prefix__a" x1="100%" x2=".269%" y1="53.822%" y2="42.644%">
            <stop offset="0%" stop-color="#FFC78E"/>
            <stop offset="100%" stop-color="#FF8900"/>
        </linearGradient>
    </defs>
    <g fill="none" fill-rule="evenodd">
        <circle cx="24" cy="24" r="24" fill="url(#prefix__a)"/>
        <g fill="#FFF" fill-rule="nonzero">
            <path d="M19.978 1.537v14.394H1.53V1.537h18.45M20.008 0H1.495C.669 0 0 .674 0 1.506v14.46c0 .832.67 1.506 1.495 1.506h18.514c.826 0 1.495-.674 1.495-1.506V1.506c0-.832-.67-1.506-1.495-1.506z" transform="translate(13 15)"/>
            <path d="M7.425 4.032c-.82 0-1.483.68-1.483 1.519 0 .839.664 1.519 1.483 1.519.82 0 1.483-.68 1.483-1.52 0-.838-.664-1.518-1.483-1.518zm-6.081 9.5l4.857-4.094 3.59 3.417 4.784-6.21 5.585 7.08v2.403H1.344v-2.596z" transform="translate(13 15)"/>
        </g>
    </g>
</svg>
