<svg xmlns="http://www.w3.org/2000/svg" xmlns:xlink="http://www.w3.org/1999/xlink" width="406" height="179" viewBox="0 0 406 179">
    <defs>
        <path id="prefix__a" d="M.443 50.504c0 6.559 1.07 12.762 3.738 18.945.003.005 0 .012.003.019 7.03 16.474 35.167 56.7 54.796 70.673 4.784-28.426 31.239-50.378 38.698-69.86h-.004c2.625-6.07 4.083-12.755 4.083-19.777C101.757 22.758 79.077.268 51.1.268 23.124.268.443 22.758.443 50.504z"/>
        <path id="prefix__c" d="M.443 50.504c0 6.559 1.07 12.762 3.738 18.945.003.005 0 .012.003.019 7.03 16.474 35.167 56.7 54.796 70.673 4.784-28.426 31.239-50.378 38.698-69.86h-.004c2.625-6.07 4.083-12.755 4.083-19.777C101.757 22.758 79.077.268 51.1.268 23.124.268.443 22.758.443 50.504z"/>
        <path id="prefix__e" d="M.443 50.504c0 6.559 1.07 12.762 3.738 18.945.003.005 0 .012.003.019 7.03 16.474 35.167 56.7 54.796 70.673 4.784-28.426 31.239-50.378 38.698-69.86h-.004c2.625-6.07 4.083-12.755 4.083-19.777C101.757 22.758 79.077.268 51.1.268 23.124.268.443 22.758.443 50.504z"/>
        <path id="prefix__g" d="M.443 50.504c0 6.559 1.07 12.762 3.738 18.945.003.005 0 .012.003.019 7.03 16.474 35.167 56.7 54.796 70.673 4.784-28.426 31.239-50.378 38.698-69.86h-.004c2.625-6.07 4.083-12.755 4.083-19.777C101.757 22.758 79.077.268 51.1.268 23.124.268.443 22.758.443 50.504z"/>
        <path id="prefix__i" d="M.443 50.504c0 6.559 1.07 12.762 3.738 18.945.003.005 0 .012.003.019 7.03 16.474 35.167 56.7 54.796 70.673 4.784-28.426 31.239-50.378 38.698-69.86h-.004c2.625-6.07 4.083-12.755 4.083-19.777C101.757 22.758 79.077.268 51.1.268 23.124.268.443 22.758.443 50.504z"/>
        <path id="prefix__k" d="M.443 50.504c0 6.559 1.07 12.762 3.738 18.945.003.005 0 .012.003.019 7.03 16.474 35.167 56.7 54.796 70.673 4.784-28.426 31.239-50.378 38.698-69.86h-.004c2.625-6.07 4.083-12.755 4.083-19.777C101.757 22.758 79.077.268 51.1.268 23.124.268.443 22.758.443 50.504z"/>
        <path id="prefix__m" d="M.443 50.504c0 6.559 1.07 12.762 3.738 18.945.003.005 0 .012.003.019 7.03 16.474 35.167 56.7 54.796 70.673 4.784-28.426 31.239-50.378 38.698-69.86h-.004c2.625-6.07 4.083-12.755 4.083-19.777C101.757 22.758 79.077.268 51.1.268 23.124.268.443 22.758.443 50.504z"/>
        <path id="prefix__o" d="M0 176.748L405.561 176.748 405.561 0.789 0 0.789z"/>
    </defs>
    <g fill="none" fill-rule="evenodd">
        <g>
            <path fill="#BDCD31" d="M13.594 63.137c-1.02 1.109-2.748 1.18-3.857.158s-1.18-2.749-.159-3.857c1.022-1.109 2.75-1.18 3.858-.158 1.108 1.02 1.18 2.748.158 3.857" transform="translate(.858 12.081)"/>
            <path fill="#FF8900" d="M42.402 8.901c-1.837 1.994-4.941 2.121-6.935.284-1.993-1.836-2.12-4.94-.284-6.933 1.837-1.993 4.94-2.121 6.934-.284 1.993 1.836 2.122 4.94.285 6.933" transform="translate(.858 12.081)"/>
            <path fill="#FDBF22" d="M17.037 37.974c-3.632 3.942-9.773 4.195-13.715.562-3.943-3.632-4.196-9.772-.564-13.715 3.633-3.944 9.774-4.195 13.716-.562 3.943 3.63 4.195 9.771.563 13.715" transform="translate(.858 12.081)"/>
        </g>
        <g transform="translate(28.314 22.378)">
            <mask id="prefix__b" fill="#fff">
                <use xlink:href="#prefix__a"/>
            </mask>
            <path fill="#70BE44" d="M-12.123-4.686c13.143-8.616 30.757-18.977 48.569-9.956 17.78 9.004 31.041 10.863 52.309 6.288 10.752-2.313 16.155-6.798 21.854-13.166 2.976 4.71 6.855 9.189 9.595 13.957 2.924 5.09 3.007 10.743 6.115 15.728 2.38 3.812 10.792 7.561 10.445 11.734-.755 9.048-33.163 17.573-42.275 20.857-15.813 5.699-31.948 11.526-48.818 15.72C31.365 41.61 14.187 27.786-2.44 13.928c-3.609-3.008-6.42-5.274-8.3-9.263l-1.384-9.352z" mask="url(#prefix__b)"/>
            <mask id="prefix__d" fill="#fff">
                <use xlink:href="#prefix__c"/>
            </mask>
            <path fill="#CDDB2D" d="M-12.465-.404C.678-9.02 18.292-19.381 36.103-10.361 53.885-1.356 67.145.502 88.413-4.072c10.752-2.313 16.155-6.799 21.854-13.166 2.976 4.71 6.854 9.187 9.595 13.957 2.923 5.088 3.007 10.742 6.117 15.726 2.38 3.812 10.79 7.562 10.443 11.734-.756 9.05-33.162 17.575-42.274 20.858-15.813 5.7-31.949 11.527-48.819 15.72C31.025 45.893 13.846 32.069-2.78 18.21c-3.608-3.007-6.42-5.273-8.3-9.263l-1.384-9.351z" mask="url(#prefix__d)"/>
            <mask id="prefix__f" fill="#fff">
                <use xlink:href="#prefix__e"/>
            </mask>
            <path fill="#BDCD31" d="M-19.94 22.48c13.142-8.616 30.756-18.978 48.567-9.957 17.783 9.004 31.044 10.863 52.31 6.289 10.752-2.313 16.157-6.798 21.855-13.166 2.976 4.71 6.855 9.188 9.594 13.957 2.923 5.088 3.008 10.743 6.117 15.727 2.38 3.812 10.792 7.561 10.443 11.733-.755 9.05-33.162 17.575-42.274 20.859C70.859 73.62 54.723 79.447 37.853 83.64 23.55 68.776 6.37 54.952-10.256 41.095c-3.608-3.008-6.42-5.274-8.298-9.264l-1.387-9.35z" mask="url(#prefix__f)"/>
            <g>
                <mask id="prefix__h" fill="#fff">
                    <use xlink:href="#prefix__g"/>
                </mask>
                <path fill="#FDBF22" d="M116.872 38.094c-14.4-8.25-33.998-12.144-50.43-2.667-16.406 9.46-35.793 4.265-50.708.603C4.917 33.374-1.4 29.675-8.036 23.472c-2.27 4.781-5.734 12.613-7.758 17.447-2.16 5.155-1.402 10.8-3.764 15.857-1.806 3.868-9.642 7.834-8.673 11.989 2.1 9.012 35.713 16.656 45.295 19.692 16.63 5.266 33.6 10.65 51.062 14.388 12.064-15.216 27.15-29.47 41.68-43.742 3.152-3.097 5.62-5.434 6.903-9.466l.163-11.543z" mask="url(#prefix__h)"/>
            </g>
            <g>
                <mask id="prefix__j" fill="#fff">
                    <use xlink:href="#prefix__i"/>
                </mask>
                <path fill="#FF8900" d="M113.468 44.232c-15.378-7.341-30.044-9.39-45.123 1.1-15.054 10.473-27.548 12.4-49.823 9.773C7.261 53.776.677 49.826-6.724 44.045c-1.626 4.917-4.212 9.682-5.59 14.637-1.471 5.283.02 10.875-1.665 16.073-1.289 3.976-8.552 8.427-7.048 12.516 3.264 8.87 37.64 14.408 47.554 16.842 17.202 4.223 34.758 8.543 52.584 11.186 9.992-15.952 23.109-31.13 35.672-46.291 2.726-3.29 4.872-5.779 5.617-9.886l-6.932-14.89z" mask="url(#prefix__j)"/>
            </g>
            <g>
                <mask id="prefix__l" fill="#fff">
                    <use xlink:href="#prefix__k"/>
                </mask>
                <path fill="#FF8900" d="M128.568 64.829c-16.69-8.105-37.653-13.463-51.16-7.997C63.9 62.3 38.742 88.636 2.648 87.28c-36.091-1.354-17.256 25.721-17.256 25.721l44.757 23.449 121.142-7.721-22.723-63.9z" mask="url(#prefix__l)"/>
            </g>
            <g>
                <mask id="prefix__n" fill="#fff">
                    <use xlink:href="#prefix__m"/>
                </mask>
                <path fill="#F05C2C" d="M128.103 89.114c-14.29-10.078-33.548-18.03-48.384-14.448-14.836 3.582-46.863 26.023-82.162 20.013-35.301-6.009-24.052 22.865-24.052 22.865l37.854 28.702 121.82 8.194-5.076-65.326z" mask="url(#prefix__n)"/>
            </g>
        </g>
        <g transform="translate(0 .07)">
            <path fill="#FFF" d="M74.328 92.43h3.857c2.915 0 5.514-.469 7.8-1.407 2.285-.937 4.215-2.228 5.788-3.87 1.57-1.641 2.77-3.591 3.6-5.85.827-2.257 1.242-4.735 1.242-7.433 0-2.64-.427-5.102-1.285-7.389-.857-2.287-2.073-4.25-3.644-5.893-1.573-1.642-3.5-2.932-5.786-3.871-2.287-.937-4.858-1.408-7.715-1.408h-3.857v37.122zM57.525 40.708h24.86c4.401 0 8.53.91 12.388 2.728 3.856 1.818 7.228 4.237 10.114 7.257 2.886 3.02 5.159 6.54 6.816 10.555 1.657 4.018 2.486 8.225 2.486 12.623 0 4.341-.814 8.519-2.444 12.535-1.628 4.017-3.886 7.551-6.771 10.6-2.886 3.05-6.258 5.484-10.116 7.301-3.857 1.818-8.015 2.727-12.473 2.727h-24.86V40.707zM270.342 75.9c0 1.206.208 2.325.625 3.36.415 1.036.982 1.94 1.699 2.709.717.771 1.572 1.372 2.567 1.807.994.433 2.069.65 3.226.65 1.11 0 2.161-.217 3.157-.65.994-.435 1.85-1.036 2.568-1.807.716-.77 1.294-1.66 1.733-2.672.44-1.012.66-2.095.66-3.251 0-1.157-.22-2.25-.66-3.287-.44-1.035-1.017-1.938-1.733-2.709-.718-.77-1.574-1.373-2.568-1.806-.996-.433-2.047-.65-3.157-.65-1.11 0-2.162.217-3.156.65-.995.433-1.851 1.037-2.568 1.806-.717.77-1.294 1.65-1.733 2.637-.44.987-.66 2.058-.66 3.214zm15.819-41.317h12.626v59.955H286.16v-4.117c-2.683 3.516-6.314 5.272-10.894 5.272-2.59 0-4.972-.505-7.145-1.516-2.174-1.011-4.07-2.407-5.69-4.19-1.618-1.78-2.878-3.876-3.78-6.284-.902-2.408-1.353-5.008-1.353-7.802 0-2.647.427-5.165 1.284-7.548.854-2.384 2.07-4.467 3.642-6.249 1.572-1.78 3.457-3.19 5.654-4.225 2.197-1.035 4.614-1.553 7.25-1.553 4.44 0 8.117 1.614 11.032 4.839V34.583zM333.298 70.628c0-1.973-1.316-6.067-7.037-6.067-5.674 0-7.076 4.325-7.076 6.067h14.113zm-14.46 7.585c0 5.634 2.542 8.451 7.631 8.451 2.729 0 6.616-.897 6.616-5.6h12.14c0 10.484-9.02 14.847-18.825 14.847-3.007 0-5.758-.47-8.256-1.41-2.497-.939-4.637-2.274-6.418-4.009-1.78-1.733-3.156-3.802-4.127-6.211-.972-2.408-1.457-5.104-1.457-8.091 0-3.08.461-5.862 1.388-8.343.924-2.48 2.242-4.587 3.954-6.32 1.71-1.734 3.78-3.071 6.21-4.01 2.427-.939 5.167-1.408 8.22-1.408 3.005 0 5.712.47 8.117 1.409 2.405.938 4.44 2.3 6.105 4.081 1.665 1.782 2.937 3.962 3.816 6.537.878 2.577 1.318 5.479 1.318 8.704v1.373h-26.433zM155.572 75.829c0 1.204.208 2.324.625 3.359.415 1.036.981 1.939 1.699 2.709.717.771 1.572 1.372 2.567 1.806.993.434 2.069.65 3.227.65 1.11 0 2.16-.216 3.156-.65.994-.434 1.85-1.035 2.568-1.806.716-.77 1.293-1.673 1.733-2.71.44-1.034.66-2.13.66-3.286 0-1.202-.22-2.31-.66-3.322-.44-1.012-1.03-1.902-1.769-2.673-.74-.77-1.607-1.373-2.601-1.806-.996-.434-2.024-.65-3.087-.65-1.11 0-2.151.229-3.123.686-.972.458-1.828 1.06-2.567 1.806-.74.747-1.33 1.625-1.768 2.637-.44 1.011-.66 2.094-.66 3.25zM183.74 57.48V92.01c0 2.071-.116 3.924-.347 5.562-.232 1.636-.555 3.081-.971 4.334-.554 1.59-1.422 3.07-2.602 4.442-1.178 1.373-2.601 2.565-4.266 3.576-1.665 1.012-3.55 1.806-5.655 2.384-2.104.578-4.382.867-6.834.867-2.774 0-5.318-.361-7.63-1.084-2.314-.722-4.337-1.722-6.071-2.997-1.734-1.277-3.157-2.77-4.267-4.48-1.11-1.708-1.85-3.575-2.22-5.598h14.153c.879 2.457 2.868 3.685 5.966 3.685 2.637 0 4.66-.77 6.072-2.312 1.41-1.542 2.115-3.684 2.115-6.429v-3.54c-.926.915-1.816 1.675-2.671 2.275-.856.604-1.724 1.098-2.601 1.482-.88.385-1.805.66-2.776.83-.97.169-2.036.253-3.191.253-2.545 0-4.88-.458-7.007-1.372-2.128-.915-3.967-2.19-5.516-3.828-1.55-1.637-2.753-3.6-3.607-5.887-.857-2.287-1.284-4.828-1.284-7.622 0-2.84.462-5.477 1.388-7.909.923-2.431 2.185-4.551 3.78-6.357 1.596-1.806 3.493-3.226 5.69-4.262 2.196-1.035 4.59-1.552 7.18-1.552 4.208 0 7.747 1.638 10.615 4.91v-3.9h12.557zM250.494 40.398c-.372-.89-.88-1.672-1.527-2.348-.648-.673-1.4-1.203-2.255-1.59-.856-.384-1.77-.577-2.74-.577-.971 0-1.886.193-2.74.577-.858.387-1.608.917-2.255 1.59-.649.676-1.157 1.457-1.527 2.348-.37.891-.555 1.841-.555 2.854 0 1.01.185 1.962.555 2.852.37.892.878 1.674 1.527 2.348.647.675 1.397 1.204 2.255 1.589.854.386 1.769.577 2.74.577.97 0 1.884-.191 2.74-.577.856-.385 1.607-.914 2.255-1.59.647-.673 1.155-1.455 1.527-2.347.369-.89.554-1.842.554-2.852 0-1.013-.185-1.963-.554-2.854"/>
            <mask id="prefix__p" fill="#fff">
                <use xlink:href="#prefix__o"/>
            </mask>
            <path fill="#FFF" d="M237.729 94.539L250.285 94.539 250.285 57.481 237.729 57.481zM203.544 57.482v20.876c0 4.574 2.127 6.862 6.383 6.862 4.255 0 6.383-2.288 6.383-6.862V57.482h12.557v23.403c0 5.01-1.585 8.766-4.751 11.27-3.17 2.503-7.9 3.756-14.19 3.756-6.29 0-11.019-1.253-14.187-3.757-3.169-2.503-4.752-6.259-4.752-11.269V57.482h12.557z" mask="url(#prefix__p)"/>
            <text fill="#FFF" font-family="Avenir-Black, Avenir" font-size="9.853" font-weight="700" letter-spacing=".068" mask="url(#prefix__p)">
                <tspan x="192.295" y="108.361">CHOOSE YOUR GUIDE, TOUR IT YOUR </tspan> <tspan x="381.578" y="108.361" letter-spacing="-.098">W</tspan> <tspan x="391.086" y="108.361" letter-spacing="-.618">A</tspan> <tspan x="397.04" y="108.361">Y</tspan>
            </text>
        </g>
    </g>
</svg>
