<svg xmlns="http://www.w3.org/2000/svg" xmlns:xlink="http://www.w3.org/1999/xlink" width="46" height="55" viewBox="0 0 46 55">
    <defs>
        <path id="prefix__a" d="M0.178 0.688L3.639 0.688 3.639 4.149 0.178 4.149z"/>
        <path id="prefix__c" d="M0 0.577L6.846 0.577 6.846 7.423 0 7.423z"/>
    </defs>
    <g fill="none" fill-rule="evenodd">
        <path fill="#FFF" d="M3.31 21.413c-.36.391-.335 1 .056 1.36.39.36 1 .335 1.36-.056.361-.39.336-1-.055-1.36-.392-.36-1-.336-1.36.056" transform="translate(0 .148)"/>
        <g transform="translate(0 .148) translate(11.704)">
            <mask id="prefix__b" fill="#fff">
                <use xlink:href="#prefix__a"/>
            </mask>
            <path fill="#FFF" d="M3.181 3.591c.648-.703.603-1.798-.1-2.445-.703-.648-1.798-.603-2.445.1-.647.703-.603 1.797.1 2.445.703.648 1.798.603 2.445-.1" mask="url(#prefix__b)"/>
        </g>
        <g transform="translate(0 .148) translate(0 7.524)">
            <mask id="prefix__d" fill="#fff">
                <use xlink:href="#prefix__c"/>
            </mask>
            <path fill="#FFF" d="M.905 1.68c-1.28 1.392-1.192 3.557.199 4.838C2.494 7.798 4.66 7.71 5.94 6.32c1.281-1.392 1.192-3.557-.199-4.838C4.352.201 2.186.29.905 1.681" mask="url(#prefix__d)"/>
        </g>
        <path fill="#FFF" d="M45.287 19.154c-.061-.394-.14-.783-.228-1.168l-.05-.215c-.231-.964-.539-1.899-.923-2.795-.802-1.875-1.922-3.584-3.292-5.062-3.264-3.526-7.951-5.737-13.158-5.737-3.925 0-7.55 1.258-10.497 3.384-1.766 1.274-3.286 2.86-4.479 4.679-.23.347-.448.703-.652 1.068-.368.657-.693 1.342-.975 2.047-.753 1.879-1.19 3.914-1.25 6.044-.003.104-.007.209-.008.314 0 .06-.004.12-.004.18 0 2.313.378 4.5 1.318 6.681l.002.006c.662 1.553 1.86 3.706 3.385 6.119.062.096.12.191.182.288.547.855 1.132 1.74 1.748 2.642.694 1.014 1.428 2.047 2.19 3.08 3.021 4.105 6.472 8.198 9.589 10.987.767.688 1.515 1.299 2.23 1.808.112-.669.261-1.328.437-1.977.707-2.597 1.888-5.036 3.273-7.347 3.08-5.136 7.158-9.635 9.255-13.79.186-.372.357-.74.51-1.107.058-.139.12-.277.171-.415.33-.763.605-1.554.825-2.369.245-.9.42-1.826.52-2.778.062-.6.094-1.21.094-1.828 0-.931-.074-1.846-.213-2.739" transform="translate(0 .148)"/>
        <path fill="#39415E" d="M25.842 28.812h1.36c1.028 0 1.944-.166 2.751-.497.806-.33 1.487-.786 2.04-1.365.554-.578.978-1.266 1.27-2.062.293-.796.439-1.67.439-2.622 0-.93-.15-1.8-.454-2.606-.302-.807-.73-1.499-1.284-2.078-.555-.579-1.235-1.033-2.041-1.365-.806-.33-1.713-.496-2.721-.496h-1.36v13.09zm-5.926-18.24h8.767c1.553 0 3.008.32 4.37.961 1.36.642 2.548 1.494 3.566 2.56 1.017 1.064 1.819 2.305 2.404 3.721.584 1.417.876 2.901.876 4.452 0 1.53-.287 3.005-.861 4.42-.574 1.418-1.37 2.664-2.389 3.738C35.631 31.5 34.442 32.36 33.082 33c-1.36.642-2.827.963-4.399.963h-8.767v-23.39z" transform="translate(0 .148)"/>
    </g>
</svg>
