<svg xmlns="http://www.w3.org/2000/svg" width="30" height="30" viewBox="0 0 30 30">
    <g fill="none">
        <path fill="#6E6D71" d="M4.475 19.44H6.42c.358 0 .648-.29.648-.648 0-.358-.29-.648-.648-.648H4.475c-.358 0-.648.29-.648.648 0 .358.29.648.648.648zM8.28 19.44h1.945c.358 0 .648-.29.648-.648 0-.358-.29-.648-.648-.648H8.28c-.358 0-.648.29-.648.648 0 .358.29.648.648.648zM12.087 19.44h1.944c.357 0 .648-.29.648-.648 0-.358-.29-.648-.648-.648h-1.944c-.358 0-.648.29-.648.648 0 .358.29.648.648.648zM15.892 19.44h1.944c.358 0 .648-.29.648-.648 0-.358-.29-.648-.648-.648h-1.944c-.358 0-.648.29-.648.648 0 .358.29.648.648.648zM19.698 19.44h1.944c.358 0 .648-.29.648-.648 0-.358-.29-.648-.648-.648h-1.944c-.358 0-.648.29-.648.648 0 .358.29.648.648.648zM23.504 19.44h1.944c.358 0 .648-.29.648-.648 0-.358-.29-.648-.648-.648h-1.944c-.358 0-.648.29-.648.648 0 .358.29.648.648.648zM4.094 22.356h1.944c.358 0 .648-.29.648-.648 0-.358-.29-.648-.648-.648H4.094c-.358 0-.648.29-.648.648 0 .358.29.648.648.648zM8.029 22.356h1.944c.358 0 .648-.29.648-.648 0-.358-.29-.648-.648-.648H8.029c-.358 0-.648.29-.648.648 0 .358.29.648.648.648zM11.964 22.356h1.944c.358 0 .648-.29.648-.648 0-.358-.29-.648-.648-.648h-1.944c-.358 0-.648.29-.648.648 0 .358.29.648.648.648zM17.844 21.06H15.9c-.358 0-.648.29-.648.648 0 .358.29.648.648.648h1.944c.358 0 .648-.29.648-.648 0-.358-.29-.648-.648-.648zM21.779 21.06h-1.944c-.358 0-.648.29-.648.648 0 .358.29.648.648.648h1.944c.358 0 .648-.29.648-.648 0-.358-.29-.648-.648-.648zM23.77 21.06c-.358 0-.648.29-.648.648 0 .358.29.648.648.648h1.944c.358 0 .648-.29.648-.648 0-.358-.29-.648-.648-.648H23.77z"/>
        <path fill="#FFF" d="M29.795 24.041v-.002l-1.607-7.904V9.193c-.002-1.855-1.506-3.359-3.362-3.361h-.008V4.504h1.49c.359 0 .649-.29.649-.648V.648c0-.358-.29-.648-.648-.648h-7.841c-.358 0-.648.29-.648.648v3.208c0 .358.29.648.648.648h1.49v1.328H4.981c-1.855.002-3.359 1.506-3.361 3.361v6.942L.013 24.039v.002c-.009.044-.013.088-.013.132v4.987c0 .358.29.648.648.648H29.16c.358 0 .648-.29.648-.648v-4.987c0-.044-.004-.088-.013-.132zM19.116 1.296h6.545v1.912h-6.545V1.296zM2.798 16.848H27.01l1.357 6.674H1.441l1.357-6.674zM21.254 4.536h2.268v1.296h-2.268V4.536zM2.916 9.193c.001-1.14.925-2.064 2.065-2.065h19.845c1.14.001 2.065.925 2.066 2.065v6.359H2.916V9.193zm25.596 19.319H1.296v-3.694h27.216v3.694z"/>
        <path fill="#FFF" d="M24.3 8.748H5.508c-.358 0-.648.29-.648.648v3.888c0 .358.29.648.648.648H24.3c.358 0 .648-.29.648-.648V9.396c0-.358-.29-.648-.648-.648zm-.648 3.888H6.156v-2.592h17.496v2.592z"/>
    </g>
</svg>
