<svg xmlns="http://www.w3.org/2000/svg" width="28" height="28" viewBox="0 0 28 28">
    <path fill="#6E6D71" stroke="#6E6D71" stroke-width=".54" d="M13.96 1C6.814 1 1 6.814 1 13.96c0 3.83 1.67 7.275 4.32 9.65v.008l.188.162c.033.03.069.053.103.08.232.197.472.386.718.566l.2.143c.262.183.53.358.804.523l.138.08c.301.174.608.34.924.49l.01.004c.674.321 1.381.584 2.114.786l.04.012c.346.094.698.174 1.055.239l.1.018c.345.06.693.108 1.047.141l.121.01c.356.03.715.048 1.078.048.363 0 .722-.019 1.078-.049l.12-.009c.354-.032.703-.08 1.048-.141l.1-.018c.357-.065.709-.145 1.055-.24l.04-.01c.733-.203 1.44-.466 2.115-.787l.01-.004c.315-.15.622-.316.923-.49.046-.028.093-.053.138-.08.275-.165.543-.34.803-.523.067-.047.134-.094.2-.143.247-.18.487-.369.72-.565.033-.028.07-.052.102-.08l.188-.163v-.009c2.65-2.375 4.32-5.82 4.32-9.649C26.92 6.814 21.106 1 13.96 1zm0 12.96c-2.382 0-4.32-1.938-4.32-4.32 0-2.382 1.938-4.32 4.32-4.32 2.382 0 4.32 1.938 4.32 4.32 0 2.382-1.938 4.32-4.32 4.32zm1.62 1.08c3.275 0 5.94 2.665 5.94 5.94v2.137c-.023.02-.046.036-.07.055-.212.174-.431.338-.655.496-.05.035-.098.071-.148.105-.241.165-.489.32-.741.466l-.139.08c-.264.148-.534.288-.809.415-.028.014-.058.027-.087.04-.897.407-1.842.703-2.814.878l-.093.016c-.306.053-.615.093-.926.122l-.129.01c-.315.024-.63.04-.949.04-.318 0-.635-.016-.95-.042l-.128-.01c-.311-.028-.62-.068-.926-.12l-.093-.018c-.972-.175-1.917-.47-2.814-.878l-.087-.039c-.275-.127-.545-.267-.81-.415l-.138-.08c-.252-.146-.5-.301-.741-.466-.05-.034-.1-.07-.148-.105-.224-.158-.443-.322-.656-.496l-.069-.055V20.98c0-3.275 2.665-5.94 5.94-5.94h3.24zm7.02 7.061V20.98c0-3.386-2.41-6.22-5.605-6.877 1.426-.972 2.365-2.61 2.365-4.463 0-2.978-2.422-5.4-5.4-5.4s-5.4 2.422-5.4 5.4c0 1.853.94 3.49 2.365 4.463-3.194.657-5.605 3.49-5.605 6.877v1.121c-2.007-2.128-3.24-4.992-3.24-8.141 0-6.55 5.33-11.88 11.88-11.88 6.55 0 11.88 5.33 11.88 11.88 0 3.149-1.233 6.013-3.24 8.141z"/>
</svg>
