<svg xmlns="http://www.w3.org/2000/svg" width="48" height="48" viewBox="0 0 48 48">
    <defs>
        <linearGradient id="prefix__a" x1="100%" x2=".269%" y1="53.822%" y2="42.644%">
            <stop offset="0%" stop-color="#FFC78E"/>
            <stop offset="100%" stop-color="#FF8900"/>
        </linearGradient>
    </defs>
    <g fill="none" fill-rule="evenodd">
        <circle cx="24" cy="24" r="24" fill="url(#prefix__a)"/>
        <g fill="#FFF">
            <path d="M15.239 21.973h7.736v-2.44h-3.673c-1.19 1.088-2.569 1.912-4.063 2.44z" transform="translate(12 12)"/>
            <path fill-rule="nonzero" d="M22.399 11.012c0-6.05-5.024-10.974-11.2-10.974C5.024.038 0 4.961 0 11.012c0 6.05 5.024 10.974 11.2 10.974 6.175 0 11.199-4.923 11.199-10.974zM2.703 7.47L3.82 5.574c.27-.458.866-.614 1.333-.35l2.44 1.38c.25.141.423.384.473.663l.255 1.429c.041.228-.005.454-.116.642-.113.193-.296.347-.524.425l-1.373.468c-.267.091-.562.064-.808-.075l-2.44-1.38c-.466-.265-.626-.85-.357-1.306zm5.633 5.903l-.273 1.399c-.053.273-.225.51-.47.648l-2.44 1.38c-.467.264-1.063.108-1.333-.35l-1.117-1.896c-.27-.457-.11-1.041.357-1.305l2.44-1.38c.25-.142.551-.168.823-.07l1.39.497c.222.08.399.231.51.42.114.193.159.425.113.657zm4.956 5.664c0 .528-.437.956-.975.956h-2.235c-.539 0-.975-.428-.975-.956v-2.76c0-.284.127-.552.349-.734l1.135-.93c.181-.15.404-.223.626-.223.227 0 .455.077.638.232l1.1.931c.214.182.337.446.337.723v2.761zM9.33 11.012c0-1.012.837-1.833 1.87-1.833 1.033 0 1.87.82 1.87 1.833 0 1.012-.837 1.833-1.87 1.833-1.033 0-1.87-.82-1.87-1.833zm3.963-5.264c0 .283-.128.551-.35.733l-1.134.93c-.182.15-.404.223-.626.223-.228 0-.455-.077-.638-.232l-1.1-.931c-.214-.182-.338-.446-.338-.723V2.987c0-.528.437-.956.976-.956h2.235c.538 0 .975.428.975.956v2.76zm.77 2.903l.273-1.399c.054-.273.225-.51.47-.648l2.44-1.38c.467-.264 1.064-.108 1.333.35l1.118 1.896c.269.457.109 1.041-.358 1.305l-2.44 1.38c-.25.142-.55.168-.822.07l-1.39-.497c-.222-.08-.4-.231-.51-.42-.114-.193-.16-.425-.114-.657zm3.184 8.15l-2.44-1.381c-.25-.141-.424-.384-.473-.663l-.256-1.429c-.04-.228.005-.454.116-.642.114-.193.296-.347.525-.425l1.372-.468c.268-.091.563-.064.808.075l2.44 1.38c.467.264.627.85.357 1.306l-1.117 1.897c-.27.457-.866.613-1.332.35z" transform="translate(12 12)"/>
        </g>
    </g>
</svg>
